# xmcd
#
# Track frame offsets: 
#        150
#        10688
#        22951
#        33817
#        44514
#        56252
#        68271
#        80834
#        93847
#        104413
#        119432
#        131920
#        142289
#        157439
#        172214
#        185339
#        198014
#        211927
#        224152
#        235702
#        249512
#        265084
#        277797
#        290604
#        302304
#        312533
#        326708
#        340321
#
# Disc length: 4715 seconds
#
# Revision: 0
# Processed by: cddbd v1.5.2PL0 Copyright (c) Steve Scherf et al.
# Submitted via: ExactAudioCopyFreeDBPlugin 1.0
#
DISCID=9e12691c
DTITLE=Aretha Franklin - The Electrifying plus The Tender, The Moving,
DTITLE=The Swingin
DYEAR=2013
DGENRE=Soul
TTITLE0=You Made Me Love You
TTITLE1=I Told You So
TTITLE2=Rock-A-Bye Your Baby With A Dixie Melody
TTITLE3=Nobody Like You
TTITLE4=Exactly Like You
TTITLE5=It's So Heartbreakin'
TTITLE6=Rough Lover
TTITLE7=Blue Holiday
TTITLE8=Just For You
TTITLE9=That Lucky Old Sun
TTITLE10=I Surrender, Dear
TTITLE11=Ac-Cent-Tchu-Ate The Positive
TTITLE12=Don't Cry, Baby
TTITLE13=Try A Little Tenderness
TTITLE14=I Apologize
TTITLE15=Without The One You Love
TTITLE16=Look For The Swinging Lining
TTITLE17=I'm Sitting On Top Of The World
TTITLE18=Just For A Thrill
TTITLE19=God Bless The Child
TTITLE20=I'm Wandering
TTITLE21=How Deep Is The Ocean
TTITLE22=I Don't Know You Anymore
TTITLE23=Lover Come Back To Me
TTITLE24=Trouble In Mind
TTITLE25=Hard Times
TTITLE26=When They Ask About You
TTITLE27=Operation Heartbreak
EXTD=
EXTT0=
EXTT1=
EXTT2=
EXTT3=
EXTT4=
EXTT5=
EXTT6=
EXTT7=
EXTT8=
EXTT9=
EXTT10=
EXTT11=
EXTT12=
EXTT13=
EXTT14=
EXTT15=
EXTT16=
EXTT17=
EXTT18=
EXTT19=
EXTT20=
EXTT21=
EXTT22=
EXTT23=
EXTT24=
EXTT25=
EXTT26=
EXTT27=
PLAYORDER=
